:version 1.10
:name ASF
:units
  mass 1
  length 1
  angle deg
:documentation
  ASF file generated by Kaydara
:root
  axis xyz
  order  tx ty tz rx ry rz
  position 0 0 0
  orientation 0 0 0
:bonedata
  begin
    id 1
    name RightUpLegDummy
    direction -1 2.30186e-007 8.31532e-007
    length 4.04083
    axis 0 0 0 xyz
  end
  begin
    id 2
    name RightUpLeg
    direction -0.000919234 -0.999985 0.00544864
    length 17.4221
    axis -3.80308 -0.00076134 -0.0523649 xyz
    dof rx ry rz
  end
  begin
    id 3
    name RightLeg
    direction -0.000919271 -0.999984 -0.00555045
    length 17.1239
    axis 4.00314 0.0181274 -0.183583 xyz
    dof rx ry rz
  end
  begin
    id 4
    name RightFoot
    direction -2.57843e-005 -4.04509e-007 1
    length 6.72091
    axis 8.18909e-005 -0.122003 -0.403008 xyz
    dof rx ry rz
  end
  begin
    id 5
    name RightToes
    direction 0.00116825 -0.014069 0.9999
    length 3.85082
    axis 0.000514414 0.540638 -0.356797 xyz
    dof rx ry rz
  end
  begin
    id 6
    name SpineDummy
    direction 0.0168869 0.966876 -0.254689
    length 6.99894
    axis 0 0 0 xyz
  end
  begin
    id 7
    name Spine
    direction -0.0132008 0.999903 0.00446247
    length 11.1999
    axis -0.00148109 0.00725429 0.756411 xyz
    dof rx ry rz
  end
  begin
    id 8
    name Spine1
    direction 0 0 0
    length 0
    axis -0.000934958 0.0245693 1.46543 xyz
    dof rx ry rz
  end
  begin
    id 9
    name HEadDummy
    direction -0.0255732 0.999672 0.00128215
    length 3.43865
    axis -0.000934958 0.0245693 1.46543 xyz
  end
  begin
    id 10
    name HEad
    direction -0.0472656 0.980052 0.19304
    length 5.12695
    axis -0.000934954 0.0245693 1.46543 xyz
    dof rx ry rz
  end
  begin
    id 11
    name LeftShoulder1Dummy
    direction 0.953098 0.301717 -0.023914
    length 3.68488
    axis -0.000934958 0.0245693 1.46543 xyz
  end
  begin
    id 12
    name LeftShoulder1
    direction 0.962466 0.271167 0.0112566
    length 3.13809
    axis -0.000934958 0.0245693 1.46543 xyz
    dof rx ry rz
  end
  begin
    id 13
    name LeftArm
    direction 0.999943 0.00455037 -0.00961766
    length 11.3419
    axis -23.1648 0.685459 1.22814 xyz
    dof rx ry rz
  end
  begin
    id 14
    name LeftForeArm
    direction 0.999332 0.0131969 0.0340885
    length 8.70632
    axis -9.90633 0.618216 0.0826942 xyz
    dof rx ry rz
  end
  begin
    id 15
    name LeftHand
    direction 0.994373 -0.0366703 0.0993905
    length 5.32135
    axis 0.00675269 0.680415 0.445699 xyz
    dof rx ry rz
  end
  begin
    id 16
    name RightShoulderDummy
    direction -0.967298 0.252589 -0.0230903
    length 3.68488
    axis -0.000934958 0.0245693 1.46543 xyz
  end
  begin
    id 17
    name RightShoulder
    direction -0.975062 0.221602 0.0120823
    length 3.13809
    axis 0.216257 0.0246515 1.45863 xyz
    dof rx ry rz
  end
  begin
    id 18
    name RightArm
    direction -0.99886 -0.00851186 -0.0469687
    length 10.3947
    axis -23.196 0.23503 -0.532632 xyz
    dof rx ry rz
  end
  begin
    id 19
    name RightForeArm
    direction -0.99909 0.00114866 0.0426317
    length 8.68355
    axis -9.91764 -0.134943 0.610517 xyz
    dof rx ry rz
  end
  begin
    id 20
    name RightHand
    direction -0.992888 -0.0489538 0.10852
    length 5.28593
    axis -0.00275396 -0.197403 0.246414 xyz
    dof rx ry rz
  end
  begin
    id 21
    name LeftUpLegDummy
    direction 1 -2.30186e-007 -8.31532e-007
    length 4.04083
    axis 0 0 0 xyz
  end
  begin
    id 22
    name LeftUpLeg
    direction -0.000920097 -1 2.79241e-006
    length 17.4221
    axis -3.48782 0.00143434 -0.0532288 xyz
    dof rx ry rz
  end
  begin
    id 23
    name LeftLeg
    direction -0.000920097 -1 2.7912e-006
    length 17.1239
    axis 3.68162 -0.00806512 -0.0529896 xyz
    dof rx ry rz
  end
  begin
    id 24
    name LeftFoot
    direction -2.57845e-005 -3.987e-007 1
    length 6.72091
    axis 3.02372e-005 -0.00147829 -0.214229 xyz
    dof rx ry rz
  end
  begin
    id 25
    name LeftToes
    direction 0.00813577 -0.00488255 0.999955
    length 3.85048
    axis 3.89895e-005 -0.0014783 -0.214229 xyz
    dof rx ry rz
  end
:hierarchy
  begin
    root RightUpLegDummy SpineDummy LeftUpLegDummy
    RightUpLegDummy RightUpLeg
    RightUpLeg RightLeg
    RightLeg RightFoot
    RightFoot RightToes
    SpineDummy Spine
    Spine Spine1
    Spine1 HEadDummy LeftShoulder1Dummy RightShoulderDummy
    HEadDummy HEad
    LeftShoulder1Dummy LeftShoulder1
    LeftShoulder1 LeftArm
    LeftArm LeftForeArm
    LeftForeArm LeftHand
    RightShoulderDummy RightShoulder
    RightShoulder RightArm
    RightArm RightForeArm
    RightForeArm RightHand
    LeftUpLegDummy LeftUpLeg
    LeftUpLeg LeftLeg
    LeftLeg LeftFoot
    LeftFoot LeftToes
  end

:SAMPLES-PER-SECOND 30
:FULLY-SPECIFIED
:DEGREES
25
root  -17.14 34.706 34.5146 -170.308 4.98711 -179.263
RightUpLeg  -8.72067 -15.3437 2.35548
RightLeg  4.87068 -2.91367 -0.059113
RightFoot  4.79545 0.0220752 -0.0988923
RightToes  -23.0792 -0.0962166 -0.199531
Spine  -2.24958 -0.0324867 0.45686
Spine1  -4.56604 0.0493569 1.51522
HEad  -67.7098 -2.32776 6.86864
LeftShoulder1  -1.94126e-019 -3.10601e-018 -2.51263e-017
LeftArm  -13.4381 25.0552 -81.5647
LeftForeArm  31.5603 -16.0924 -2.68271
LeftHand  -0.406279 -1.1385 7.36929
RightShoulder  -4.96962e-017 0 -2.36833e-017
RightArm  -27.6703 -22.0563 75.473
RightForeArm  56.9233 14.6894 1.15081
RightHand  -0.395187 -1.09812 -10.7912
LeftUpLeg  -6.31944 5.65111 1.44033
LeftLeg  4.24598 14.1277 0.137127
LeftFoot  4.20561 -0.0373944 1.19016
LeftToes  -16.368 1.31378e-006 1.14341e-007
26
root  -17.1426 34.7051 34.5282 -170.289 5.19395 -179.256
RightUpLeg  -8.80124 -15.1907 2.3569
RightLeg  4.90552 -2.86982 -0.059953
RightFoot  4.79017 0.0210731 -0.0943987
RightToes  -23.0826 -0.0960088 -0.199481
Spine  -2.23965 0.0152123 0.458465
Spine1  -4.5458 0.14773 1.50971
HEad  -67.4443 -1.74858 6.95494
LeftShoulder1  -1.94126e-019 -3.10601e-018 -2.51263e-017
LeftArm  -13.7837 25.2551 -81.5778
LeftForeArm  31.5905 -15.5317 -2.59338
LeftHand  -0.417288 -1.15049 7.55258
RightShoulder  -4.96962e-017 0 -2.36833e-017
RightArm  -27.5732 -21.8621 75.5173
RightForeArm  56.9457 14.6501 1.15579
RightHand  -0.394077 -1.17723 -10.8232
LeftUpLeg  -6.33592 5.76897 1.42381
LeftLeg  4.26185 14.2106 0.141812
LeftFoot  4.18722 -0.037565 1.19281
LeftToes  -16.3191 1.31378e-006 1.14341e-007
27
root  -17.1437 34.7021 34.5404 -170.276 5.33749 -179.251
RightUpLeg  -8.86462 -15.1121 2.35889
RightLeg  4.94837 -2.7882 -0.0603066
RightFoot  4.78307 0.0198765 -0.0873133
RightToes  -23.0721 -0.0958018 -0.199423
Spine  -2.27242 0.0570892 0.461473
Spine1  -4.61109 0.234371 1.52175
HEad  -66.7655 -1.30787 6.95188
LeftShoulder1  -1.94126e-019 -3.10601e-018 -2.51263e-017
LeftArm  -14.1255 25.4781 -81.6276
LeftForeArm  31.7604 -14.9748 -2.50839
LeftHand  -0.415916 -1.18703 7.48932
RightShoulder  -4.96962e-017 0 -2.36833e-017
RightArm  -27.6467 -21.8746 75.5409
RightForeArm  56.9858 14.6138 1.16006
RightHand  -0.393567 -1.16139 -10.845
LeftUpLeg  -6.37325 5.88593 1.41336
LeftLeg  4.31985 14.2203 0.156149
LeftFoot  4.1438 -0.0369281 1.18291
LeftToes  -16.3177 1.31378e-006 1.14341e-007
28
root  -17.142 34.6987 34.5513 -170.264 5.47644 -179.247
RightUpLeg  -8.97022 -15.0857 2.37013
RightLeg  5.0827 -2.69558 -0.064584
RightFoot  4.71048 0.0184224 -0.076706
RightToes  -23.1951 -0.0955968 -0.19936
Spine  -2.29542 0.120137 0.462584
Spine1  -4.65706 0.361693 1.51986
HEad  -66.027 -0.909767 6.97411
LeftShoulder1  -1.94126e-019 -3.10601e-018 -2.51263e-017
LeftArm  -14.2504 25.632 -81.6366
LeftForeArm  31.7388 -14.6185 -2.45624
LeftHand  -0.412168 -1.13706 7.62382
RightShoulder  -4.96962e-017 0 -2.36833e-017
RightArm  -27.8016 -21.9723 75.608
RightForeArm  57.0218 14.5632 1.16646
RightHand  -0.395163 -1.20176 -10.7996
LeftUpLeg  -6.42412 6.00766 1.40853
LeftLeg  4.40943 14.2311 0.178277
LeftFoot  4.11314 -0.0364736 1.17585
LeftToes  -16.447 1.31378e-006 1.14341e-007
29
root  -17.1488 34.6997 34.5628 -170.261 5.53969 -179.311
RightUpLeg  -9.09151 -15.1253 2.30254
RightLeg  5.25357 -2.59439 -0.0698522
RightFoot  4.63539 0.0169283 -0.0656518
RightToes  -23.2824 -0.0953948 -0.199294
Spine  -2.31256 0.170564 0.44075
Spine1  -4.6921 0.461711 1.47246
HEad  -65.7031 -0.622282 7.0829
LeftShoulder1  -1.94126e-019 -3.10601e-018 -2.51263e-017
LeftArm  -14.3725 25.6251 -81.6579
LeftForeArm  31.7951 -14.2962 -2.41264
LeftHand  -0.414163 -1.1611 7.57637
RightShoulder  -4.96962e-017 0 -2.36833e-017
RightArm  -27.9941 -22.0577 75.6753
RightForeArm  57.2271 14.4278 1.18212
RightHand  -0.392939 -1.17506 -10.8763
LeftUpLeg  -6.47187 5.24671 1.3522
LeftLeg  4.49637 14.9903 0.210088
LeftFoot  4.12589 -0.0404189 1.23717
LeftToes  -16.3442 1.31378e-006 1.14341e-007
30
root  -17.1449 34.691 34.5746 -170.262 5.62794 -179.274
RightUpLeg  -9.20697 -15.0234 2.3441
RightLeg  5.4467 -2.60312 -0.0788523
RightFoot  4.54004 0.0160166 -0.0630136
RightToes  -23.2413 -0.0951971 -0.199225
Spine  -2.3216 0.249521 0.434494
Spine1  -4.71063 0.618807 1.45402
HEad  -65.672 -0.259829 7.33021
LeftShoulder1  -1.94126e-019 -3.10601e-018 -2.51263e-017
LeftArm  -14.5069 25.5954 -81.6371
LeftForeArm  31.9057 -14.2775 -2.42368
LeftHand  -0.414382 -1.13569 7.61968
RightShoulder  -4.96962e-017 0 -2.36833e-017
RightArm  -28.3332 -22.127 75.7565
RightForeArm  57.7493 14.1175 1.21933
RightHand  -0.396669 -1.14301 -10.7698
LeftUpLeg  -6.51405 5.99214 1.3618
LeftLeg  4.56437 14.3894 0.218717
LeftFoot  4.00167 -0.0353233 1.15797
LeftToes  -16.2416 1.31378e-006 1.14341e-007
31
root  -17.1487 34.685 34.5799 -170.258 5.63678 -179.267
RightUpLeg  -9.30779 -14.9506 2.3476
RightLeg  5.62467 -2.6718 -0.0892454
RightFoot  4.47304 0.0155324 -0.0665467
RightToes  -23.1719 -0.0950048 -0.199156
Spine  -2.29131 0.312449 0.421885
Spine1  -4.65183 0.741679 1.42019
HEad  -66.0283 0.158335 7.62986
LeftShoulder1  -1.94126e-019 -3.10601e-018 -2.51263e-017
LeftArm  -14.5307 25.4463 -81.6044
LeftForeArm  31.9501 -14.5228 -2.46854
LeftHand  -0.416077 -1.13015 7.59713
RightShoulder  -4.96962e-017 0 -2.36833e-017
RightArm  -28.9448 -22.0935 75.8535
RightForeArm  58.5368 13.645 1.2789
RightHand  -0.396803 -1.13821 -10.7877
LeftUpLeg  -6.59247 5.86641 1.36199
LeftLeg  4.71105 14.5238 0.257495
LeftFoot  3.93177 -0.0346999 1.14827
LeftToes  -16.1795 1.31378e-006 1.14341e-007
32
root  -17.155 34.6811 34.5741 -170.234 5.57762 -179.255
RightUpLeg  -9.31659 -14.9239 2.34866
RightLeg  5.62833 -2.75874 -0.0923526
RightFoot  4.47422 0.0153315 -0.0741593
RightToes  -23.2744 -0.0948191 -0.199088
Spine  -2.26589 0.343546 0.418785
Spine1  -4.60139 0.799675 1.40972
HEad  -66.4269 0.427824 7.84468
LeftShoulder1  -1.94126e-019 -3.10601e-018 -2.51263e-017
LeftArm  -14.4323 25.3763 -81.5663
LeftForeArm  31.8997 -15.0814 -2.5553
LeftHand  -0.41859 -1.14063 7.5061
RightShoulder  -4.96962e-017 0 -2.36833e-017
RightArm  -29.3698 -22.1259 75.9269
RightForeArm  58.882 13.3711 1.3145
RightHand  -0.394655 -1.18007 -10.8991
LeftUpLeg  -6.65376 5.81867 1.36879
LeftLeg  4.78613 14.5128 0.276116
LeftFoot  3.90902 -0.034203 1.14055
LeftToes  -16.2865 1.31378e-006 1.14341e-007
33
root  -17.164 34.678 34.5625 -170.204 5.49854 -179.251
RightUpLeg  -9.31422 -15.0572 2.33854
RightLeg  5.60511 -2.7027 -0.0893657
RightFoot  4.48547 0.0147868 -0.0768553
RightToes  -23.3094 -0.0946411 -0.199023
Spine  -2.2686 0.363117 0.423639
Spine1  -4.6069 0.835136 1.41568
HEad  -66.6006 0.620188 7.83756
LeftShoulder1  -1.94126e-019 -3.10601e-018 -2.51263e-017
LeftArm  -14.2319 25.3411 -81.5612
LeftForeArm  31.7396 -15.6911 -2.648
LeftHand  -0.416811 -1.14967 7.54499
RightShoulder  -4.96962e-017 0 -2.36833e-017
RightArm  -29.6695 -22.2199 75.9478
RightForeArm  59.2105 13.1783 1.33841
RightHand  -0.397116 -1.19901 -10.8892
LeftUpLeg  -6.70992 5.78173 1.35959
LeftLeg  4.85422 14.4765 0.292455
LeftFoot  3.85337 -0.0330495 1.12262
LeftToes  -16.233 1.31378e-006 1.14341e-007
34
root  -17.1763 34.6749 34.5464 -170.166 5.40497 -179.251
RightUpLeg  -9.30194 -15.1613 2.33159
RightLeg  5.56048 -2.67879 -0.0864827
RightFoot  4.49755 0.0140951 -0.0774172
RightToes  -23.381 -0.094472 -0.198961
Spine  -2.28274 0.359703 0.436111
Spine1  -4.63519 0.826062 1.43741
HEad  -66.6122 0.838805 7.7996
LeftShoulder1  -1.94126e-019 -3.10601e-018 -2.51263e-017
LeftArm  -14.0036 25.3248 -81.5624
LeftForeArm  31.6201 -16.3355 -2.74385
LeftHand  -0.415639 -1.23909 7.42982
RightShoulder  -4.96962e-017 0 -2.36833e-017
RightArm  -29.8484 -22.34 75.9565
RightForeArm  59.4274 13.1034 1.34694
RightHand  -0.39963 -1.19321 -10.8903
LeftUpLeg  -6.76276 5.81317 1.34253
LeftLeg  4.90794 14.3508 0.303277
LeftFoot  3.82701 -0.0319897 1.10615
LeftToes  -16.2744 1.31378e-006 1.14341e-007
35
root  -17.1868 34.6727 34.5279 -170.119 5.27313 -179.254
RightUpLeg  -9.29499 -15.2326 2.32895
RightLeg  5.53837 -2.73904 -0.0768014
RightFoot  4.47224 0.0133464 -0.0770994
RightToes  -23.3253 -0.094313 -0.198905
Spine  -2.30636 0.338842 0.453974
Spine1  -4.68238 0.783381 1.47009
HEad  -66.5045 1.01884 7.60432
LeftShoulder1  -1.94126e-019 -3.10601e-018 -2.51263e-017
LeftArm  -13.7043 25.2791 -81.5861
LeftForeArm  31.4261 -16.9204 -2.83063
LeftHand  -0.405526 -1.17563 7.31727
RightShoulder  -4.96962e-017 0 -2.36833e-017
RightArm  -29.9708 -22.4625 75.9593
RightForeArm  59.4941 13.1087 1.34362
RightHand  -0.401062 -1.17448 -10.9288
LeftUpLeg  -6.82727 5.7473 1.32909
LeftLeg  4.9565 14.2867 0.313928
LeftFoot  3.77988 -0.0308915 1.08908
LeftToes  -16.1409 1.31378e-006 1.14341e-007
36
root  -17.1986 34.6724 34.5083 -170.066 5.1143 -179.259
RightUpLeg  -9.27203 -15.3682 2.32638
RightLeg  5.4746 -2.75843 -0.0747125
RightFoot  4.47821 0.0126307 -0.0771562
RightToes  -23.2902 -0.0941653 -0.198856
Spine  -2.3328 0.307126 0.47562
Spine1  -4.7348 0.719643 1.51123
HEad  -66.3852 1.20374 7.44425
LeftShoulder1  -1.94126e-019 -3.10601e-018 -2.51263e-017
LeftArm  -13.4385 25.1712 -81.6441
LeftForeArm  31.2179 -17.37 -2.9015
LeftHand  -0.404526 -1.1679 7.38124
RightShoulder  -4.96962e-017 0 -2.36833e-017
RightArm  -30.0391 -22.5631 75.9539
RightForeArm  59.4102 13.1391 1.33745
RightHand  -0.401891 -1.19819 -10.9786
LeftUpLeg  -6.87122 5.60437 1.32304
LeftLeg  4.97913 14.3772 0.321497
LeftFoot  3.81413 -0.0318489 1.10396
LeftToes  -15.5096 1.31378e-006 1.14341e-007
37
root  -17.2092 34.6729 34.4853 -170.013 4.9333 -179.264
RightUpLeg  -9.21834 -15.5463 2.32503
RightLeg  5.36155 -2.76029 -0.0762857
RightFoot  4.51302 0.011967 -0.077826
RightToes  -23.3701 -0.0940298 -0.198816
Spine  -2.34942 0.278416 0.490571
Spine1  -4.76721 0.661664 1.53951
HEad  -66.2424 1.33063 7.32724
LeftShoulder1  -1.94126e-019 -3.10601e-018 -2.51263e-017
LeftArm  -13.181 25.0063 -81.7054
LeftForeArm  31.1519 -17.7652 -2.96667
LeftHand  -0.409648 -1.23157 7.33239
RightShoulder  -4.96962e-017 0 -2.36833e-017
RightArm  -30.11 -22.6214 75.9634
RightForeArm  59.3414 13.1549 1.337
RightHand  -0.401172 -1.23804 -11.0623
LeftUpLeg  -6.92931 5.69154 1.31229
LeftLeg  4.97776 14.0259 0.313456
LeftFoot  3.76552 -0.029467 1.06694
LeftToes  -16.0898 1.31378e-006 1.14341e-007
